<svg xmlns="http://www.w3.org/2000/svg" xmlns:xlink="http://www.w3.org/1999/xlink" width="500" zoomAndPan="magnify" viewBox="0 0 375 374.999991" height="500" preserveAspectRatio="xMidYMid meet" version="1.0"><defs><clipPath id="id1"><path d="M 67 1 L 309.375 1 L 309.375 375 L 67 375 Z M 67 1 " clip-rule="nonzero"/></clipPath><clipPath id="id2"><path d="M 152 50.238281 L 223 50.238281 L 223 200 L 152 200 Z M 152 50.238281 " clip-rule="nonzero"/></clipPath><clipPath id="id3"><path d="M 151.59375 50.238281 L 223.59375 50.238281 L 223.59375 200.238281 L 151.59375 200.238281 Z M 151.59375 50.238281 " clip-rule="nonzero"/></clipPath></defs><g clip-path="url(#id1)"><path fill="#000000" d="M 271.050781 34.558594 C 246.554688 11.535156 214.5 0.015625 180.800781 2.109375 C 151.75 3.914062 124.242188 16.421875 103.351562 37.324219 C 82.460938 58.222656 69.96875 85.734375 68.175781 114.789062 C 65.925781 151.203125 79.960938 186.25 106.675781 210.941406 C 128.761719 231.359375 141.429688 259.417969 141.429688 287.921875 L 141.429688 294.625 L 235.578125 294.625 L 235.578125 290.816406 C 235.578125 260.578125 248.332031 231.386719 270.570312 210.722656 C 295.039062 187.988281 309.070312 155.804688 309.070312 122.429688 C 309.070312 89.292969 295.214844 57.261719 271.050781 34.558594 Z M 265.386719 205.144531 C 242.539062 226.375 229.050781 256.03125 228.027344 287.007812 L 149.042969 287.007812 C 148.777344 256.703125 135.25 226.984375 111.84375 205.351562 C 86.816406 182.21875 73.667969 149.378906 75.777344 115.257812 C 79.273438 58.609375 124.628906 13.234375 181.273438 9.707031 C 212.855469 7.738281 242.886719 18.539062 265.835938 40.105469 C 288.804688 61.691406 301.457031 90.929688 301.457031 122.433594 C 301.457031 153.695312 288.308594 183.84375 265.386719 205.144531 Z M 146.78125 356.121094 C 149.25 367.238281 158.214844 375 168.582031 375 L 208.425781 375 C 218.792969 375 227.757812 367.238281 230.226562 356.121094 L 231.257812 351.488281 L 145.753906 351.488281 Z M 221.113281 359.105469 C 218.476562 364.144531 213.714844 367.386719 208.425781 367.386719 L 168.582031 367.386719 C 163.292969 367.386719 158.53125 364.144531 155.894531 359.105469 Z M 228.335938 301.078125 L 148.671875 301.078125 C 143.472656 301.078125 139.238281 305.3125 139.238281 310.515625 L 139.238281 311.453125 C 139.238281 316.65625 143.472656 320.890625 148.671875 320.890625 L 228.335938 320.890625 C 233.539062 320.890625 237.769531 316.65625 237.769531 311.453125 L 237.769531 310.515625 C 237.769531 305.3125 233.539062 301.078125 228.335938 301.078125 Z M 230.15625 311.453125 C 230.15625 312.457031 229.339844 313.273438 228.335938 313.273438 L 148.671875 313.273438 C 147.671875 313.273438 146.851562 312.457031 146.851562 311.453125 L 146.851562 310.515625 C 146.851562 309.511719 147.671875 308.695312 148.671875 308.695312 L 228.335938 308.695312 C 229.339844 308.695312 230.15625 309.511719 230.15625 310.515625 Z M 228.335938 326.554688 L 148.671875 326.554688 C 143.472656 326.554688 139.238281 330.789062 139.238281 335.992188 L 139.238281 336.929688 C 139.238281 342.132812 143.472656 346.363281 148.671875 346.363281 L 228.335938 346.363281 C 233.539062 346.363281 237.769531 342.132812 237.769531 336.929688 L 237.769531 335.992188 C 237.769531 330.789062 233.539062 326.554688 228.335938 326.554688 Z M 230.15625 336.929688 C 230.15625 337.933594 229.339844 338.75 228.335938 338.75 L 148.671875 338.75 C 147.671875 338.75 146.851562 337.933594 146.851562 336.929688 L 146.851562 335.992188 C 146.851562 334.988281 147.671875 334.167969 148.671875 334.167969 L 228.335938 334.167969 C 229.339844 334.167969 230.15625 334.984375 230.15625 335.992188 Z M 230.15625 336.929688 " fill-opacity="1" fill-rule="nonzero"/></g><g clip-path="url(#id2)"><path fill="#393536" d="M 185.625 117.671875 L 222.921875 50.941406 L 152.285156 132.804688 L 189.585938 132.804688 L 152.285156 199.539062 L 222.921875 117.671875 L 185.625 117.671875 " fill-opacity="1" fill-rule="nonzero"/></g><g clip-path="url(#id3)"><path fill="#393536" d="M 185.625 117.671875 L 186.152344 117.964844 L 223.449219 51.230469 C 223.601562 50.960938 223.523438 50.625 223.269531 50.449219 C 223.015625 50.269531 222.667969 50.316406 222.46875 50.546875 L 151.828125 132.414062 C 151.675781 132.589844 151.640625 132.839844 151.738281 133.054688 C 151.835938 133.269531 152.050781 133.40625 152.285156 133.40625 L 188.558594 133.40625 L 151.757812 199.246094 C 151.609375 199.515625 151.6875 199.855469 151.941406 200.03125 C 152.195312 200.207031 152.539062 200.164062 152.742188 199.929688 L 223.382812 118.066406 C 223.535156 117.886719 223.570312 117.636719 223.472656 117.421875 C 223.375 117.210938 223.160156 117.074219 222.921875 117.074219 L 185.625 117.074219 L 185.625 117.671875 L 186.152344 117.964844 L 185.625 117.671875 L 185.625 118.273438 L 221.609375 118.273438 L 155.707031 194.652344 L 190.113281 133.097656 C 190.214844 132.914062 190.214844 132.683594 190.105469 132.5 C 189.996094 132.316406 189.800781 132.203125 189.585938 132.203125 L 153.597656 132.203125 L 219.503906 55.824219 L 185.097656 117.382812 C 184.996094 117.566406 184.996094 117.792969 185.105469 117.976562 C 185.214844 118.160156 185.414062 118.273438 185.625 118.273438 L 185.625 117.671875 " fill-opacity="1" fill-rule="nonzero"/></g></svg>