<svg xmlns="http://www.w3.org/2000/svg" xmlns:xlink="http://www.w3.org/1999/xlink" width="500" zoomAndPan="magnify" viewBox="0 0 375 374.999991" height="500" preserveAspectRatio="xMidYMid meet" version="1.0"><defs><clipPath id="id1"><path d="M 108.1875 108.1875 L 267.445312 108.1875 L 267.445312 267.445312 L 108.1875 267.445312 Z M 108.1875 108.1875 " clip-rule="nonzero"/></clipPath></defs><path fill="#333333" d="M 39.921875 70.785156 C 38.488281 90.972656 37.550781 138.605469 53.582031 192.667969 C 70.910156 251.101562 108.160156 316.96875 186.285156 363.378906 C 264.414062 316.96875 301.664062 251.101562 318.992188 192.667969 C 335.027344 138.605469 334.085938 90.972656 332.65625 70.785156 C 290.894531 69.207031 257.5625 58.554688 232.695312 46.449219 C 210.519531 35.648438 195.035156 23.691406 186.285156 15.953125 C 177.539062 23.691406 162.058594 35.648438 139.878906 46.449219 C 115.015625 58.554688 81.679688 69.207031 39.921875 70.785156 Z M 42.546875 195.996094 C 24.375 134.714844 27.339844 81.21875 28.898438 64.574219 L 29.382812 59.402344 L 34.527344 59.304688 C 76.777344 58.492188 110.242188 47.96875 134.921875 35.957031 C 159.472656 24.003906 175.277344 10.589844 182.34375 3.855469 L 186.285156 0.0976562 L 190.226562 3.855469 C 197.300781 10.589844 213.101562 24.003906 237.652344 35.957031 C 262.332031 47.96875 295.796875 58.492188 338.042969 59.304688 L 343.191406 59.402344 L 343.675781 64.574219 C 345.238281 81.21875 348.199219 134.714844 330.027344 195.996094 C 311.792969 257.484375 272.363281 326.882812 189.148438 375.191406 L 186.285156 376.851562 L 183.429688 375.191406 C 100.210938 326.882812 60.78125 257.484375 42.546875 195.996094 " fill-opacity="1" fill-rule="nonzero"/><g clip-path="url(#id1)"><path fill="#333333" d="M 232 169.832031 L 173.945312 227.886719 C 172.914062 228.917969 170.863281 228.917969 169.832031 227.886719 L 143.632812 201.6875 C 142.613281 200.652344 142.613281 198.605469 143.632812 197.585938 L 152.371094 188.847656 C 153.386719 187.816406 155.453125 187.816406 156.484375 188.847656 L 168.8125 201.175781 C 170.355469 202.71875 172.914062 202.71875 174.453125 201.175781 L 219.148438 156.484375 C 220.179688 155.453125 222.242188 155.453125 223.261719 156.484375 L 232 165.207031 C 233.015625 166.75 233.015625 168.8125 232 169.832031 Z M 187.816406 108.1875 C 144.15625 108.1875 108.1875 144.140625 108.1875 187.816406 C 108.1875 231.476562 144.15625 267.445312 187.816406 267.445312 C 231.492188 267.445312 267.445312 231.476562 267.445312 187.816406 C 267.445312 144.140625 231.492188 108.1875 187.816406 108.1875 " fill-opacity="1" fill-rule="nonzero"/></g></svg>