<svg xmlns="http://www.w3.org/2000/svg" viewBox="0 0 64 64" aria-labelledby="title"
aria-describedby="desc" role="img" xmlns:xlink="http://www.w3.org/1999/xlink">
  <title>Social</title>
  <desc>A line styled icon from Orion Icon Library.</desc>
  <circle data-name="layer2"
  cx="32" cy="39" r="7" fill="none" stroke="#f76c6c" stroke-miterlimit="10"
  stroke-width="2" stroke-linejoin="round" stroke-linecap="round"></circle>
  <path data-name="layer2" d="M32 46a12.1 12.1 0 0 0-12 12v2h24v-2a12.1 12.1 0 0 0-12-12z"
  fill="none" stroke="#f76c6c" stroke-miterlimit="10" stroke-width="2" stroke-linejoin="round"
  stroke-linecap="round"></path>
  <circle data-name="layer2" cx="52" cy="10" r="6" fill="none" stroke="#f76c6c"
  stroke-miterlimit="10" stroke-width="2" stroke-linejoin="round" stroke-linecap="round"></circle>
  <path data-name="layer2" d="M62 28c0-7.5-4.5-12-10-12s-10 4.5-10 12z"
  fill="none" stroke="#f76c6c" stroke-miterlimit="10" stroke-width="2" stroke-linejoin="round"
  stroke-linecap="round"></path>
  <circle data-name="layer2" cx="12" cy="10" r="6" fill="none" stroke="#f76c6c"
  stroke-miterlimit="10" stroke-width="2" stroke-linejoin="round" stroke-linecap="round"></circle>
  <path data-name="layer2" d="M22 28c0-7.5-4.5-12-10-12S2 20.5 2 28z"
  fill="none" stroke="#f76c6c" stroke-miterlimit="10" stroke-width="2" stroke-linejoin="round"
  stroke-linecap="round"></path>
  <path data-name="layer1" fill="none" stroke="#f76c6c" stroke-miterlimit="10"
  stroke-width="2" d="M12 34l8 8m32-8l-8 8M24 14h16" stroke-linejoin="round"
  stroke-linecap="round"></path>
</svg>