<svg xmlns="http://www.w3.org/2000/svg" viewBox="0 0 64 64" aria-labelledby="title"
aria-describedby="desc" role="img" xmlns:xlink="http://www.w3.org/1999/xlink">
  <title>Student</title>
  <desc>A line styled icon from Orion Icon Library.</desc>
  <path data-name="layer2"
  d="M24 41.1V44c0 2 .6 4.9-10.4 7S2 62 2 62h60s0-8.6-12.4-11C38.9 48.9 39 46 39 44v-2.7"
  fill="none" stroke="#f76c6c" stroke-linecap="round" stroke-linejoin="round"
  stroke-width="2"></path>
  <path data-name="layer2" fill="none" stroke="#f76c6c" stroke-linecap="round"
  stroke-linejoin="round" stroke-width="2" d="M16 50.5L32 62l16-11.3m-10.4-8.4A17.2 17.2 0 0 0 44.8 32c3 0 3.7-4.3 3.7-5.3S49 22.1 46 22v-6m-28 0v6c-3 0-3 4.1-3 5s.4 5 3.4 5a15.9 15.9 0 0 0 7.2 10.3"></path>
  <path data-name="layer1" fill="none" stroke="#f76c6c" stroke-miterlimit="10"
  stroke-width="2" d="M32 12L4 6l28-4 28 4-28 6z" stroke-linejoin="round"
  stroke-linecap="round"></path>
  <path data-name="layer1" fill="none" stroke="#f76c6c" stroke-miterlimit="10"
  stroke-width="2" d="M18 9v7l14 2 14-2V9M6 6.4V30" stroke-linejoin="round"
  stroke-linecap="round"></path>
</svg>