<svg xmlns="http://www.w3.org/2000/svg" xmlns:xlink="http://www.w3.org/1999/xlink" width="500" zoomAndPan="magnify" viewBox="0 0 375 374.999991" height="500" preserveAspectRatio="xMidYMid meet" version="1.0"><defs><clipPath id="id1"><path d="M 10.546875 81 L 125 81 L 125 185 L 10.546875 185 Z M 10.546875 81 " clip-rule="nonzero"/></clipPath><clipPath id="id2"><path d="M 250 81 L 364.546875 81 L 364.546875 185 L 250 185 Z M 250 81 " clip-rule="nonzero"/></clipPath></defs><g clip-path="url(#id1)"><path fill="#f5f5f5" d="M 39.476562 81.457031 L 95.640625 81.457031 C 103.574219 81.457031 110.78125 84.695312 116 89.917969 C 121.222656 95.136719 124.464844 102.339844 124.464844 110.269531 L 124.464844 155.347656 C 124.464844 163.277344 121.222656 170.480469 116 175.699219 C 110.78125 180.921875 103.574219 184.160156 95.640625 184.160156 L 39.476562 184.160156 C 31.546875 184.160156 24.339844 180.921875 19.117188 175.699219 C 13.898438 170.480469 10.65625 163.277344 10.65625 155.347656 L 10.65625 110.269531 C 10.65625 102.339844 13.898438 95.136719 19.117188 89.917969 C 24.339844 84.695312 31.546875 81.457031 39.476562 81.457031 Z M 95.640625 91.632812 L 39.476562 91.632812 C 34.355469 91.632812 29.695312 93.734375 26.316406 97.113281 C 22.9375 100.492188 20.835938 105.148438 20.835938 110.269531 L 20.835938 155.347656 C 20.835938 160.46875 22.9375 165.125 26.316406 168.503906 C 29.695312 171.886719 34.355469 173.984375 39.476562 173.984375 L 95.640625 173.984375 C 100.761719 173.984375 105.421875 171.886719 108.804688 168.503906 C 112.183594 165.125 114.28125 160.46875 114.28125 155.347656 L 114.28125 110.269531 C 114.28125 105.148438 112.183594 100.492188 108.804688 97.113281 C 105.421875 93.734375 100.761719 91.632812 95.640625 91.632812 Z M 95.640625 91.632812 " fill-opacity="1" fill-rule="nonzero"/></g><path fill="#f5f5f5" d="M 46.148438 149.417969 C 46.148438 146.605469 43.871094 144.328125 41.058594 144.328125 C 38.25 144.328125 35.96875 146.605469 35.96875 149.417969 L 35.96875 179.070312 C 35.96875 181.882812 38.25 184.160156 41.058594 184.160156 C 43.871094 184.160156 46.148438 181.882812 46.148438 179.070312 Z M 46.148438 149.417969 " fill-opacity="1" fill-rule="nonzero"/><path fill="#f5f5f5" d="M 99.148438 149.417969 C 99.148438 146.605469 96.871094 144.328125 94.058594 144.328125 C 91.246094 144.328125 88.96875 146.605469 88.96875 149.417969 L 88.96875 179.070312 C 88.96875 181.882812 91.246094 184.160156 94.058594 184.160156 C 96.871094 184.160156 99.148438 181.882812 99.148438 179.070312 Z M 99.148438 149.417969 " fill-opacity="1" fill-rule="nonzero"/><path fill="#f5f5f5" d="M 67.558594 0 C 77.945312 0 87.359375 4.199219 94.183594 10.988281 C 101.015625 17.785156 105.242188 27.164062 105.242188 37.511719 C 105.242188 47.863281 101.015625 57.242188 94.183594 64.039062 C 87.359375 70.824219 77.945312 75.027344 67.558594 75.027344 C 57.171875 75.027344 47.757812 70.824219 40.933594 64.039062 C 34.101562 57.242188 29.878906 47.863281 29.878906 37.511719 C 29.878906 27.164062 34.101562 17.785156 40.933594 10.988281 C 47.757812 4.199219 57.171875 0 67.558594 0 Z M 87.027344 18.183594 C 82.054688 13.238281 75.171875 10.179688 67.558594 10.179688 C 59.945312 10.179688 53.0625 13.238281 48.09375 18.183594 C 43.128906 23.121094 40.058594 29.957031 40.058594 37.511719 C 40.058594 45.070312 43.128906 51.90625 48.09375 56.84375 C 53.0625 61.789062 59.945312 64.847656 67.558594 64.847656 C 75.171875 64.847656 82.054688 61.789062 87.027344 56.84375 C 91.988281 51.90625 95.058594 45.070312 95.058594 37.511719 C 95.058594 29.957031 91.988281 23.121094 87.027344 18.183594 Z M 87.027344 18.183594 " fill-opacity="1" fill-rule="nonzero"/><g clip-path="url(#id2)"><path fill="#f5f5f5" d="M 279.449219 81.457031 L 335.617188 81.457031 C 343.546875 81.457031 350.753906 84.695312 355.972656 89.917969 C 361.195312 95.136719 364.4375 102.339844 364.4375 110.269531 L 364.4375 155.347656 C 364.4375 163.277344 361.195312 170.480469 355.972656 175.699219 C 350.753906 180.921875 343.546875 184.160156 335.617188 184.160156 L 279.449219 184.160156 C 271.519531 184.160156 264.3125 180.921875 259.09375 175.699219 C 253.871094 170.480469 250.628906 163.277344 250.628906 155.347656 L 250.628906 110.269531 C 250.628906 102.339844 253.871094 95.136719 259.09375 89.917969 C 264.3125 84.695312 271.519531 81.457031 279.449219 81.457031 Z M 335.617188 91.632812 L 279.449219 91.632812 C 274.332031 91.632812 269.667969 93.734375 266.289062 97.113281 C 262.910156 100.492188 260.8125 105.148438 260.8125 110.269531 L 260.8125 155.347656 C 260.8125 160.46875 262.910156 165.125 266.289062 168.503906 C 269.667969 171.886719 274.332031 173.984375 279.449219 173.984375 L 335.617188 173.984375 C 340.738281 173.984375 345.398438 171.886719 348.777344 168.503906 C 352.15625 165.125 354.253906 160.46875 354.253906 155.347656 L 354.253906 110.269531 C 354.253906 105.148438 352.15625 100.492188 348.777344 97.113281 C 345.398438 93.734375 340.738281 91.632812 335.617188 91.632812 Z M 335.617188 91.632812 " fill-opacity="1" fill-rule="nonzero"/></g><path fill="#f5f5f5" d="M 286.125 149.417969 C 286.125 146.605469 283.84375 144.328125 281.035156 144.328125 C 278.222656 144.328125 275.945312 146.605469 275.945312 149.417969 L 275.945312 179.070312 C 275.945312 181.882812 278.222656 184.160156 281.035156 184.160156 C 283.84375 184.160156 286.125 181.882812 286.125 179.070312 Z M 286.125 149.417969 " fill-opacity="1" fill-rule="nonzero"/><path fill="#f5f5f5" d="M 339.125 149.417969 C 339.125 146.605469 336.84375 144.328125 334.03125 144.328125 C 331.222656 144.328125 328.941406 146.605469 328.941406 149.417969 L 328.941406 179.070312 C 328.941406 181.882812 331.222656 184.160156 334.03125 184.160156 C 336.84375 184.160156 339.125 181.882812 339.125 179.070312 Z M 339.125 149.417969 " fill-opacity="1" fill-rule="nonzero"/><path fill="#f5f5f5" d="M 307.535156 0 C 317.921875 0 327.335938 4.199219 334.15625 10.988281 C 340.988281 17.785156 345.214844 27.164062 345.214844 37.511719 C 345.214844 47.863281 340.988281 57.242188 334.15625 64.039062 C 327.335938 70.824219 317.921875 75.027344 307.535156 75.027344 C 297.148438 75.027344 287.730469 70.824219 280.910156 64.039062 C 274.078125 57.242188 269.851562 47.863281 269.851562 37.511719 C 269.851562 27.164062 274.078125 17.785156 280.910156 10.988281 C 287.730469 4.199219 297.148438 0 307.535156 0 Z M 327 18.183594 C 322.03125 13.238281 315.148438 10.179688 307.535156 10.179688 C 299.921875 10.179688 293.039062 13.238281 288.066406 18.183594 C 283.105469 23.121094 280.03125 29.957031 280.03125 37.511719 C 280.03125 45.070312 283.105469 51.90625 288.066406 56.84375 C 293.039062 61.789062 299.921875 64.847656 307.535156 64.847656 C 315.148438 64.847656 322.03125 61.789062 327 56.84375 C 331.964844 51.90625 335.035156 45.070312 335.035156 37.511719 C 335.035156 29.957031 331.964844 23.121094 327 18.183594 Z M 327 18.183594 " fill-opacity="1" fill-rule="nonzero"/><path fill="#f5f5f5" d="M 159.464844 272.292969 L 215.628906 272.292969 C 223.558594 272.292969 230.765625 275.535156 235.988281 280.753906 C 241.207031 285.976562 244.449219 293.179688 244.449219 301.109375 L 244.449219 346.1875 C 244.449219 354.113281 241.207031 361.320312 235.988281 366.539062 C 230.765625 371.757812 223.558594 375 215.628906 375 L 159.464844 375 C 151.535156 375 144.328125 371.757812 139.105469 366.539062 C 133.882812 361.320312 130.640625 354.113281 130.640625 346.1875 L 130.640625 301.109375 C 130.640625 293.179688 133.882812 285.976562 139.105469 280.753906 C 144.328125 275.535156 151.535156 272.292969 159.464844 272.292969 Z M 215.628906 282.472656 L 159.464844 282.472656 C 154.34375 282.472656 149.683594 284.570312 146.300781 287.949219 C 142.921875 291.328125 140.824219 295.988281 140.824219 301.109375 L 140.824219 346.1875 C 140.824219 351.304688 142.921875 355.964844 146.300781 359.34375 C 149.683594 362.722656 154.34375 364.820312 159.464844 364.820312 L 215.628906 364.820312 C 220.75 364.820312 225.410156 362.722656 228.789062 359.34375 C 232.167969 355.964844 234.269531 351.304688 234.269531 346.1875 L 234.269531 301.109375 C 234.269531 295.988281 232.167969 291.328125 228.789062 287.949219 C 225.410156 284.570312 220.75 282.472656 215.628906 282.472656 Z M 215.628906 282.472656 " fill-opacity="1" fill-rule="nonzero"/><path fill="#f5f5f5" d="M 187.546875 190.839844 C 197.933594 190.839844 207.347656 195.039062 214.171875 201.828125 C 221.003906 208.621094 225.226562 218.003906 225.226562 228.351562 C 225.226562 238.699219 221.003906 248.082031 214.171875 254.878906 C 207.347656 261.664062 197.933594 265.867188 187.546875 265.867188 C 177.160156 265.867188 167.746094 261.664062 160.921875 254.878906 C 154.089844 248.082031 149.863281 238.703125 149.863281 228.351562 C 149.863281 218.003906 154.089844 208.621094 160.921875 201.828125 C 167.746094 195.039062 177.160156 190.839844 187.546875 190.839844 Z M 207.011719 209.023438 C 202.042969 204.078125 195.160156 201.015625 187.546875 201.015625 C 179.933594 201.015625 173.050781 204.078125 168.082031 209.023438 C 163.117188 213.960938 160.046875 220.796875 160.046875 228.351562 C 160.046875 235.910156 163.117188 242.742188 168.082031 247.683594 C 173.050781 252.625 179.933594 255.6875 187.546875 255.6875 C 195.160156 255.6875 202.042969 252.625 207.011719 247.683594 C 211.976562 242.742188 215.046875 235.910156 215.046875 228.351562 C 215.046875 220.796875 211.976562 213.960938 207.011719 209.023438 Z M 207.011719 209.023438 " fill-opacity="1" fill-rule="nonzero"/><path fill="#f5f5f5" d="M 159.464844 272.292969 L 215.628906 272.292969 C 223.558594 272.292969 230.765625 275.535156 235.988281 280.753906 C 241.207031 285.976562 244.449219 293.179688 244.449219 301.109375 L 244.449219 346.1875 C 244.449219 354.113281 241.207031 361.320312 235.988281 366.539062 C 230.765625 371.757812 223.558594 375 215.628906 375 L 159.464844 375 C 151.535156 375 144.328125 371.757812 139.105469 366.539062 C 133.882812 361.320312 130.640625 354.113281 130.640625 346.1875 L 130.640625 301.109375 C 130.640625 293.179688 133.882812 285.976562 139.105469 280.753906 C 144.328125 275.535156 151.535156 272.292969 159.464844 272.292969 Z M 215.628906 282.472656 L 159.464844 282.472656 C 154.34375 282.472656 149.683594 284.570312 146.300781 287.949219 C 142.921875 291.328125 140.824219 295.988281 140.824219 301.109375 L 140.824219 346.1875 C 140.824219 351.304688 142.921875 355.964844 146.300781 359.34375 C 149.683594 362.722656 154.34375 364.820312 159.464844 364.820312 L 215.628906 364.820312 C 220.75 364.820312 225.410156 362.722656 228.789062 359.34375 C 232.167969 355.964844 234.269531 351.304688 234.269531 346.1875 L 234.269531 301.109375 C 234.269531 295.988281 232.167969 291.328125 228.789062 287.949219 C 225.410156 284.570312 220.75 282.472656 215.628906 282.472656 Z M 215.628906 282.472656 " fill-opacity="1" fill-rule="nonzero"/><path fill="#f5f5f5" d="M 166.136719 340.253906 C 166.136719 337.445312 163.859375 335.164062 161.046875 335.164062 C 158.234375 335.164062 155.957031 337.445312 155.957031 340.253906 L 155.957031 369.910156 C 155.957031 372.722656 158.234375 375 161.046875 375 C 163.859375 375 166.136719 372.722656 166.136719 369.910156 Z M 166.136719 340.253906 " fill-opacity="1" fill-rule="nonzero"/><path fill="#f5f5f5" d="M 219.136719 340.253906 C 219.136719 337.445312 216.859375 335.164062 214.046875 335.164062 C 211.234375 335.164062 208.957031 337.445312 208.957031 340.253906 L 208.957031 369.910156 C 208.957031 372.722656 211.234375 375 214.046875 375 C 216.859375 375 219.136719 372.722656 219.136719 369.910156 Z M 219.136719 340.253906 " fill-opacity="1" fill-rule="nonzero"/><path fill="#f5f5f5" d="M 187.546875 190.839844 C 197.933594 190.839844 207.347656 195.039062 214.171875 201.828125 C 221.003906 208.621094 225.226562 218.003906 225.226562 228.351562 C 225.226562 238.699219 221.003906 248.082031 214.171875 254.878906 C 207.347656 261.664062 197.933594 265.867188 187.546875 265.867188 C 177.160156 265.867188 167.746094 261.664062 160.921875 254.878906 C 154.089844 248.082031 149.863281 238.703125 149.863281 228.351562 C 149.863281 218.003906 154.089844 208.621094 160.921875 201.828125 C 167.746094 195.039062 177.160156 190.839844 187.546875 190.839844 Z M 207.011719 209.023438 C 202.042969 204.078125 195.160156 201.015625 187.546875 201.015625 C 179.933594 201.015625 173.050781 204.078125 168.082031 209.023438 C 163.117188 213.960938 160.046875 220.796875 160.046875 228.351562 C 160.046875 235.910156 163.117188 242.742188 168.082031 247.683594 C 173.050781 252.625 179.933594 255.6875 187.546875 255.6875 C 195.160156 255.6875 202.042969 252.625 207.011719 247.683594 C 211.976562 242.742188 215.046875 235.910156 215.046875 228.351562 C 215.046875 220.796875 211.976562 213.960938 207.011719 209.023438 Z M 207.011719 209.023438 " fill-opacity="1" fill-rule="nonzero"/><path fill="#f5f5f5" d="M 324.230469 178.433594 C 323.878906 175.660156 321.339844 173.691406 318.5625 174.042969 C 315.785156 174.394531 313.816406 176.929688 314.167969 179.707031 C 314.496094 182.277344 314.75 184.972656 314.925781 187.785156 C 315.085938 190.367188 315.171875 193.082031 315.171875 195.929688 C 315.171875 221.933594 307.398438 246.113281 294.058594 266.265625 C 280.285156 287.0625 260.585938 303.59375 237.371094 313.445312 C 234.789062 314.539062 233.589844 317.523438 234.6875 320.101562 C 235.785156 322.683594 238.769531 323.882812 241.347656 322.785156 C 266.40625 312.152344 287.667969 294.3125 302.527344 271.871094 C 316.949219 250.085938 325.351562 223.976562 325.351562 195.929688 C 325.351562 193.09375 325.253906 190.164062 325.066406 187.148438 C 324.886719 184.320312 324.605469 181.410156 324.230469 178.4375 Z M 133.746094 322.785156 C 136.324219 323.882812 139.308594 322.683594 140.40625 320.101562 C 141.503906 317.523438 140.300781 314.542969 137.722656 313.445312 C 114.507812 303.589844 94.808594 287.0625 81.035156 266.261719 C 67.695312 246.113281 59.925781 221.933594 59.925781 195.929688 C 59.925781 193.082031 60.007812 190.367188 60.167969 187.785156 C 60.347656 184.972656 60.597656 182.277344 60.925781 179.707031 C 61.277344 176.929688 59.308594 174.394531 56.53125 174.042969 C 53.753906 173.691406 51.214844 175.660156 50.863281 178.4375 C 50.488281 181.410156 50.207031 184.320312 50.027344 187.148438 C 49.839844 190.164062 49.742188 193.09375 49.742188 195.929688 C 49.742188 223.976562 58.144531 250.085938 72.566406 271.871094 C 87.425781 294.3125 108.6875 312.152344 133.746094 322.785156 Z M 104.652344 85.875 C 102.414062 87.5625 101.96875 90.75 103.660156 92.992188 C 105.347656 95.230469 108.539062 95.675781 110.777344 93.984375 C 121.664062 85.777344 133.886719 79.277344 147.054688 74.875 C 159.742188 70.636719 173.359375 68.339844 187.546875 68.339844 C 201.054688 68.339844 214.566406 70.777344 227.277344 75.007812 C 240.882812 79.535156 253.609375 86.113281 264.472656 93.949219 C 266.746094 95.582031 269.914062 95.066406 271.550781 92.796875 C 273.183594 90.523438 272.667969 87.355469 270.394531 85.71875 C 258.746094 77.3125 245.082031 70.253906 230.457031 65.386719 C 216.683594 60.804688 202.085938 58.160156 187.546875 58.160156 C 172.304688 58.160156 157.605469 60.652344 143.835938 65.253906 C 129.582031 70.015625 116.378906 77.035156 104.652344 85.875 Z M 104.652344 85.875 " fill-opacity="1" fill-rule="nonzero"/></svg>