<svg xmlns="http://www.w3.org/2000/svg" xmlns:xlink="http://www.w3.org/1999/xlink" width="500" zoomAndPan="magnify" viewBox="0 0 375 374.999991" height="500" preserveAspectRatio="xMidYMid meet" version="1.0"><defs><g/></defs><g fill="#000000" fill-opacity="1"><g transform="translate(107.736735, 216.478168)"><g><path d="M 15.203125 -20.828125 L 25.875 -20.828125 L 25.875 -31.640625 L 37.765625 -31.640625 L 37.765625 -20.828125 L 44.609375 -20.828125 L 44.609375 -11.09375 L 37.765625 -11.09375 L 37.765625 0 L 25.875 0 L 25.875 -11.09375 L 1.953125 -11.09375 L 1.953125 -19.671875 L 17.875 -50.4375 L 30.1875 -50.4375 Z M 15.203125 -20.828125 "/></g></g></g><g fill="#000000" fill-opacity="1"><g transform="translate(153.345512, 216.478168)"><g><path d="M 23.0625 -29.984375 L 25.4375 -29.625 C 29.226562 -29.039062 32.265625 -27.546875 34.546875 -25.140625 C 36.835938 -22.742188 37.984375 -19.648438 37.984375 -15.859375 C 37.984375 -11.003906 36.21875 -7.050781 32.6875 -4 C 29.15625 -0.945312 24.484375 0.578125 18.671875 0.578125 C 15.253906 0.578125 11.835938 0.0234375 8.421875 -1.078125 C 5.015625 -2.179688 2.160156 -3.671875 -0.140625 -5.546875 L 5.046875 -15.28125 C 8.835938 -11.195312 13.039062 -9.15625 17.65625 -9.15625 C 20.15625 -9.15625 22.078125 -9.726562 23.421875 -10.875 C 24.765625 -12.03125 25.4375 -13.640625 25.4375 -15.703125 C 25.4375 -19.929688 22.816406 -22.046875 17.578125 -22.046875 L 9.515625 -22.046875 L 9.515625 -28.890625 L 20.75 -40.578125 L 2.375 -40.578125 L 2.375 -50.375 L 35.671875 -50.375 L 35.671875 -43.09375 Z M 23.0625 -29.984375 "/></g></g></g><g fill="#000000" fill-opacity="1"><g transform="translate(193.55041, 216.478168)"><g><path d="M 6.046875 -46.546875 C 8.597656 -49.285156 12.035156 -50.65625 16.359375 -50.65625 C 20.679688 -50.65625 24.101562 -49.285156 26.625 -46.546875 C 29.144531 -43.804688 30.40625 -40.109375 30.40625 -35.453125 C 30.40625 -30.742188 29.144531 -27.019531 26.625 -24.28125 C 24.101562 -21.539062 20.679688 -20.171875 16.359375 -20.171875 C 12.035156 -20.171875 8.597656 -21.539062 6.046875 -24.28125 C 3.503906 -27.019531 2.234375 -30.742188 2.234375 -35.453125 C 2.234375 -40.109375 3.503906 -43.804688 6.046875 -46.546875 Z M 12.828125 0 L 48.859375 -50.515625 L 60.53125 -50.515625 L 24.5 0 Z M 20.859375 -41.75 C 19.773438 -43.269531 18.269531 -44.03125 16.34375 -44.03125 C 14.425781 -44.03125 12.925781 -43.269531 11.84375 -41.75 C 10.769531 -40.238281 10.234375 -38.140625 10.234375 -35.453125 C 10.234375 -32.765625 10.769531 -30.660156 11.84375 -29.140625 C 12.925781 -27.628906 14.425781 -26.875 16.34375 -26.875 C 18.269531 -26.875 19.773438 -27.628906 20.859375 -29.140625 C 21.941406 -30.660156 22.484375 -32.765625 22.484375 -35.453125 C 22.484375 -38.140625 21.941406 -40.238281 20.859375 -41.75 Z M 47.125 -26.15625 C 49.675781 -28.894531 53.113281 -30.265625 57.4375 -30.265625 C 61.757812 -30.265625 65.179688 -28.894531 67.703125 -26.15625 C 70.222656 -23.414062 71.484375 -19.71875 71.484375 -15.0625 C 71.484375 -10.351562 70.222656 -6.617188 67.703125 -3.859375 C 65.179688 -1.097656 61.757812 0.28125 57.4375 0.28125 C 53.113281 0.28125 49.675781 -1.097656 47.125 -3.859375 C 44.582031 -6.617188 43.3125 -10.351562 43.3125 -15.0625 C 43.3125 -19.71875 44.582031 -23.414062 47.125 -26.15625 Z M 61.9375 -21.359375 C 60.851562 -22.878906 59.347656 -23.640625 57.421875 -23.640625 C 55.503906 -23.640625 54.003906 -22.878906 52.921875 -21.359375 C 51.847656 -19.847656 51.3125 -17.75 51.3125 -15.0625 C 51.3125 -12.375 51.847656 -10.257812 52.921875 -8.71875 C 54.003906 -7.175781 55.503906 -6.40625 57.421875 -6.40625 C 59.347656 -6.40625 60.851562 -7.175781 61.9375 -8.71875 C 63.019531 -10.257812 63.5625 -12.375 63.5625 -15.0625 C 63.5625 -17.75 63.019531 -19.847656 61.9375 -21.359375 Z M 61.9375 -21.359375 "/></g></g></g><path fill="#d9d9d9" d="M 187.5 0 C 190.570312 0 193.636719 0.0742188 196.699219 0.226562 C 199.765625 0.375 202.824219 0.601562 205.878906 0.902344 C 208.933594 1.203125 211.976562 1.578125 215.011719 2.03125 C 218.046875 2.480469 221.070312 3.003906 224.078125 3.601562 C 227.089844 4.203125 230.082031 4.875 233.058594 5.617188 C 236.035156 6.363281 238.992188 7.183594 241.929688 8.074219 C 244.863281 8.964844 247.777344 9.925781 250.667969 10.960938 C 253.554688 11.996094 256.417969 13.097656 259.253906 14.273438 C 262.089844 15.445312 264.890625 16.691406 267.667969 18.003906 C 270.441406 19.3125 273.179688 20.691406 275.886719 22.140625 C 278.59375 23.585938 281.261719 25.097656 283.894531 26.675781 C 286.527344 28.253906 289.117188 29.894531 291.667969 31.597656 C 294.222656 33.304688 296.730469 35.070312 299.195312 36.898438 C 301.660156 38.726562 304.078125 40.613281 306.449219 42.558594 C 308.820312 44.507812 311.144531 46.511719 313.417969 48.570312 C 315.691406 50.632812 317.914062 52.746094 320.082031 54.917969 C 322.253906 57.085938 324.367188 59.308594 326.429688 61.582031 C 328.488281 63.855469 330.492188 66.179688 332.4375 68.550781 C 334.386719 70.921875 336.273438 73.339844 338.101562 75.804688 C 339.929688 78.269531 341.695312 80.777344 343.402344 83.332031 C 345.105469 85.882812 346.746094 88.472656 348.324219 91.105469 C 349.902344 93.738281 351.414062 96.40625 352.859375 99.113281 C 354.308594 101.820312 355.6875 104.558594 356.996094 107.332031 C 358.308594 110.105469 359.554688 112.910156 360.726562 115.746094 C 361.902344 118.582031 363.003906 121.445312 364.039062 124.332031 C 365.074219 127.222656 366.035156 130.136719 366.925781 133.070312 C 367.816406 136.007812 368.636719 138.964844 369.378906 141.941406 C 370.125 144.917969 370.796875 147.910156 371.398438 150.921875 C 371.996094 153.929688 372.519531 156.953125 372.96875 159.988281 C 373.421875 163.023438 373.796875 166.066406 374.097656 169.121094 C 374.398438 172.175781 374.625 175.234375 374.773438 178.300781 C 374.925781 181.363281 375 184.429688 375 187.5 C 375 190.570312 374.925781 193.636719 374.773438 196.699219 C 374.625 199.765625 374.398438 202.824219 374.097656 205.878906 C 373.796875 208.933594 373.421875 211.976562 372.96875 215.011719 C 372.519531 218.046875 371.996094 221.070312 371.398438 224.078125 C 370.796875 227.089844 370.125 230.082031 369.378906 233.058594 C 368.636719 236.035156 367.816406 238.992188 366.925781 241.929688 C 366.035156 244.863281 365.074219 247.777344 364.039062 250.667969 C 363.003906 253.554688 361.902344 256.417969 360.726562 259.253906 C 359.554688 262.089844 358.308594 264.890625 356.996094 267.667969 C 355.6875 270.441406 354.308594 273.179688 352.859375 275.886719 C 351.414062 278.59375 349.902344 281.261719 348.324219 283.894531 C 346.746094 286.527344 345.105469 289.117188 343.402344 291.667969 C 341.695312 294.222656 339.929688 296.730469 338.101562 299.195312 C 336.273438 301.660156 334.386719 304.078125 332.4375 306.449219 C 330.492188 308.820312 328.488281 311.144531 326.429688 313.417969 C 324.367188 315.691406 322.253906 317.914062 320.082031 320.082031 C 317.914062 322.253906 315.691406 324.367188 313.417969 326.429688 C 311.144531 328.488281 308.820312 330.492188 306.449219 332.4375 C 304.078125 334.386719 301.660156 336.273438 299.195312 338.101562 C 296.730469 339.929688 294.222656 341.695312 291.667969 343.402344 C 289.117188 345.105469 286.527344 346.746094 283.894531 348.324219 C 281.261719 349.902344 278.59375 351.414062 275.886719 352.859375 C 273.179688 354.308594 270.441406 355.6875 267.667969 356.996094 C 264.890625 358.308594 262.089844 359.554688 259.253906 360.726562 C 256.417969 361.902344 253.554688 363.003906 250.667969 364.039062 C 247.777344 365.074219 244.863281 366.035156 241.929688 366.925781 C 238.992188 367.816406 236.035156 368.636719 233.058594 369.378906 C 230.082031 370.125 227.089844 370.796875 224.078125 371.398438 C 221.070312 371.996094 218.046875 372.519531 215.011719 372.96875 C 211.976562 373.421875 208.933594 373.796875 205.878906 374.097656 C 202.824219 374.398438 199.765625 374.625 196.699219 374.773438 C 193.636719 374.925781 190.570312 375 187.5 375 C 184.429688 375 181.363281 374.925781 178.300781 374.773438 C 175.234375 374.625 172.175781 374.398438 169.121094 374.097656 C 166.066406 373.796875 163.023438 373.421875 159.988281 372.96875 C 156.953125 372.519531 153.929688 371.996094 150.921875 371.398438 C 147.910156 370.796875 144.917969 370.125 141.941406 369.378906 C 138.964844 368.636719 136.007812 367.816406 133.070312 366.925781 C 130.136719 366.035156 127.222656 365.074219 124.332031 364.039062 C 121.445312 363.003906 118.582031 361.902344 115.746094 360.726562 C 112.910156 359.554688 110.105469 358.308594 107.332031 356.996094 C 104.558594 355.6875 101.820312 354.308594 99.113281 352.859375 C 96.40625 351.414062 93.738281 349.902344 91.105469 348.324219 C 88.472656 346.746094 85.882812 345.105469 83.332031 343.402344 C 80.777344 341.695312 78.269531 339.929688 75.804688 338.101562 C 73.339844 336.273438 70.921875 334.386719 68.550781 332.4375 C 66.179688 330.492188 63.855469 328.488281 61.582031 326.429688 C 59.308594 324.367188 57.085938 322.253906 54.917969 320.082031 C 52.746094 317.914062 50.632812 315.691406 48.570312 313.417969 C 46.511719 311.144531 44.507812 308.820312 42.558594 306.449219 C 40.613281 304.078125 38.726562 301.660156 36.898438 299.195312 C 35.070312 296.730469 33.304688 294.222656 31.597656 291.667969 C 29.894531 289.117188 28.253906 286.527344 26.675781 283.894531 C 25.097656 281.261719 23.585938 278.59375 22.140625 275.886719 C 20.691406 273.179688 19.3125 270.441406 18.003906 267.667969 C 16.691406 264.890625 15.445312 262.089844 14.273438 259.253906 C 13.097656 256.417969 11.996094 253.554688 10.960938 250.667969 C 9.925781 247.777344 8.964844 244.863281 8.074219 241.929688 C 7.183594 238.992188 6.363281 236.035156 5.621094 233.058594 C 4.875 230.082031 4.203125 227.089844 3.601562 224.078125 C 3.003906 221.070312 2.480469 218.046875 2.03125 215.011719 C 1.578125 211.976562 1.203125 208.933594 0.902344 205.878906 C 0.601562 202.824219 0.375 199.765625 0.226562 196.699219 C 0.0742188 193.636719 0 190.570312 0 187.5 C 0 184.429688 0.0742188 181.363281 0.226562 178.300781 C 0.375 175.234375 0.601562 172.175781 0.902344 169.121094 C 1.203125 166.066406 1.578125 163.023438 2.03125 159.988281 C 2.480469 156.953125 3.003906 153.929688 3.601562 150.921875 C 4.203125 147.910156 4.875 144.917969 5.621094 141.941406 C 6.363281 138.964844 7.183594 136.007812 8.074219 133.070312 C 8.964844 130.136719 9.925781 127.222656 10.960938 124.332031 C 11.996094 121.445312 13.097656 118.582031 14.273438 115.746094 C 15.445312 112.910156 16.691406 110.105469 18.003906 107.332031 C 19.3125 104.558594 20.691406 101.820312 22.140625 99.113281 C 23.585938 96.40625 25.097656 93.738281 26.675781 91.105469 C 28.253906 88.472656 29.894531 85.882812 31.597656 83.332031 C 33.304688 80.777344 35.070312 78.269531 36.898438 75.804688 C 38.726562 73.339844 40.613281 70.921875 42.558594 68.550781 C 44.507812 66.179688 46.511719 63.855469 48.570312 61.582031 C 50.632812 59.308594 52.746094 57.085938 54.917969 54.917969 C 57.085938 52.746094 59.308594 50.632812 61.582031 48.570312 C 63.855469 46.511719 66.179688 44.507812 68.550781 42.558594 C 70.921875 40.613281 73.339844 38.726562 75.804688 36.898438 C 78.269531 35.070312 80.777344 33.304688 83.332031 31.597656 C 85.882812 29.894531 88.472656 28.253906 91.105469 26.675781 C 93.738281 25.097656 96.40625 23.585938 99.113281 22.140625 C 101.820312 20.691406 104.558594 19.3125 107.332031 18.003906 C 110.105469 16.691406 112.910156 15.445312 115.746094 14.273438 C 118.582031 13.097656 121.445312 11.996094 124.332031 10.960938 C 127.222656 9.925781 130.136719 8.964844 133.070312 8.074219 C 136.007812 7.183594 138.964844 6.363281 141.941406 5.617188 C 144.917969 4.875 147.910156 4.203125 150.921875 3.601562 C 153.929688 3.003906 156.953125 2.480469 159.988281 2.03125 C 163.023438 1.578125 166.066406 1.203125 169.121094 0.902344 C 172.175781 0.601562 175.234375 0.375 178.300781 0.226562 C 181.363281 0.0742188 184.429688 0 187.5 0 L 187.5 75 C 185.660156 75 183.820312 75.046875 181.980469 75.136719 C 180.140625 75.226562 178.304688 75.359375 176.472656 75.542969 C 174.640625 75.722656 172.8125 75.949219 170.992188 76.21875 C 169.171875 76.488281 167.359375 76.800781 165.550781 77.160156 C 163.746094 77.519531 161.949219 77.925781 160.164062 78.371094 C 158.378906 78.820312 156.605469 79.308594 154.84375 79.84375 C 153.082031 80.378906 151.332031 80.957031 149.601562 81.578125 C 147.867188 82.195312 146.148438 82.859375 144.449219 83.5625 C 142.746094 84.269531 141.0625 85.015625 139.398438 85.800781 C 137.734375 86.589844 136.089844 87.414062 134.46875 88.285156 C 132.84375 89.152344 131.242188 90.058594 129.664062 91.003906 C 128.085938 91.953125 126.527344 92.9375 125 93.960938 C 123.46875 94.984375 121.960938 96.042969 120.484375 97.140625 C 119.003906 98.234375 117.554688 99.367188 116.128906 100.535156 C 114.707031 101.703125 113.3125 102.90625 111.949219 104.144531 C 110.585938 105.378906 109.253906 106.648438 107.949219 107.949219 C 106.648438 109.253906 105.378906 110.585938 104.144531 111.949219 C 102.90625 113.3125 101.703125 114.707031 100.535156 116.128906 C 99.367188 117.554688 98.234375 119.003906 97.140625 120.484375 C 96.042969 121.960938 94.984375 123.46875 93.960938 125 C 92.9375 126.527344 91.953125 128.085938 91.003906 129.664062 C 90.058594 131.242188 89.152344 132.84375 88.285156 134.46875 C 87.414062 136.089844 86.589844 137.734375 85.800781 139.398438 C 85.015625 141.0625 84.269531 142.746094 83.5625 144.449219 C 82.859375 146.148438 82.195312 147.867188 81.578125 149.601562 C 80.957031 151.332031 80.378906 153.082031 79.84375 154.84375 C 79.308594 156.605469 78.820312 158.378906 78.371094 160.164062 C 77.925781 161.949219 77.519531 163.746094 77.160156 165.550781 C 76.800781 167.359375 76.488281 169.171875 76.21875 170.992188 C 75.949219 172.8125 75.722656 174.640625 75.542969 176.472656 C 75.359375 178.304688 75.226562 180.140625 75.136719 181.980469 C 75.046875 183.820312 75 185.660156 75 187.5 C 75 189.339844 75.046875 191.179688 75.136719 193.019531 C 75.226562 194.859375 75.359375 196.695312 75.542969 198.527344 C 75.722656 200.359375 75.949219 202.1875 76.21875 204.007812 C 76.488281 205.828125 76.800781 207.640625 77.160156 209.449219 C 77.519531 211.253906 77.925781 213.050781 78.371094 214.835938 C 78.820312 216.621094 79.308594 218.394531 79.84375 220.15625 C 80.378906 221.917969 80.957031 223.667969 81.578125 225.398438 C 82.195312 227.132812 82.859375 228.851562 83.5625 230.550781 C 84.269531 232.253906 85.015625 233.933594 85.800781 235.601562 C 86.589844 237.265625 87.414062 238.910156 88.285156 240.53125 C 89.152344 242.15625 90.058594 243.757812 91.003906 245.335938 C 91.953125 246.914062 92.9375 248.472656 93.960938 250 C 94.984375 251.53125 96.042969 253.039062 97.140625 254.515625 C 98.234375 255.996094 99.367188 257.445312 100.535156 258.871094 C 101.703125 260.292969 102.90625 261.6875 104.144531 263.050781 C 105.378906 264.414062 106.648438 265.746094 107.949219 267.050781 C 109.253906 268.351562 110.585938 269.621094 111.949219 270.855469 C 113.3125 272.09375 114.707031 273.296875 116.128906 274.464844 C 117.554688 275.632812 119.003906 276.765625 120.484375 277.859375 C 121.960938 278.957031 123.46875 280.015625 125 281.039062 C 126.527344 282.0625 128.085938 283.046875 129.664062 283.996094 C 131.242188 284.941406 132.84375 285.847656 134.46875 286.714844 C 136.089844 287.585938 137.734375 288.410156 139.398438 289.199219 C 141.0625 289.984375 142.746094 290.730469 144.449219 291.4375 C 146.148438 292.140625 147.867188 292.804688 149.601562 293.421875 C 151.332031 294.042969 153.082031 294.621094 154.84375 295.15625 C 156.605469 295.691406 158.378906 296.179688 160.164062 296.628906 C 161.949219 297.074219 163.746094 297.480469 165.550781 297.839844 C 167.359375 298.199219 169.171875 298.511719 170.992188 298.78125 C 172.8125 299.050781 174.640625 299.277344 176.472656 299.457031 C 178.304688 299.640625 180.140625 299.773438 181.980469 299.863281 C 183.820312 299.953125 185.660156 300 187.5 300 C 189.339844 300 191.179688 299.953125 193.019531 299.863281 C 194.859375 299.773438 196.695312 299.640625 198.527344 299.457031 C 200.359375 299.277344 202.1875 299.050781 204.007812 298.78125 C 205.828125 298.511719 207.640625 298.199219 209.449219 297.839844 C 211.253906 297.480469 213.050781 297.074219 214.835938 296.628906 C 216.621094 296.179688 218.394531 295.691406 220.15625 295.15625 C 221.917969 294.621094 223.667969 294.042969 225.398438 293.421875 C 227.132812 292.804688 228.851562 292.140625 230.550781 291.4375 C 232.253906 290.730469 233.933594 289.984375 235.601562 289.199219 C 237.265625 288.410156 238.910156 287.585938 240.53125 286.714844 C 242.15625 285.847656 243.757812 284.941406 245.335938 283.996094 C 246.914062 283.046875 248.472656 282.0625 250 281.039062 C 251.53125 280.015625 253.039062 278.957031 254.515625 277.859375 C 255.996094 276.765625 257.445312 275.632812 258.871094 274.464844 C 260.292969 273.296875 261.6875 272.09375 263.050781 270.855469 C 264.414062 269.621094 265.746094 268.351562 267.050781 267.050781 C 268.351562 265.746094 269.621094 264.414062 270.855469 263.050781 C 272.09375 261.6875 273.296875 260.292969 274.464844 258.871094 C 275.632812 257.445312 276.765625 255.996094 277.859375 254.515625 C 278.957031 253.039062 280.015625 251.53125 281.039062 250 C 282.0625 248.472656 283.046875 246.914062 283.996094 245.335938 C 284.941406 243.757812 285.847656 242.15625 286.714844 240.53125 C 287.585938 238.910156 288.410156 237.265625 289.199219 235.601562 C 289.984375 233.933594 290.730469 232.253906 291.4375 230.550781 C 292.140625 228.851562 292.804688 227.132812 293.421875 225.398438 C 294.042969 223.667969 294.621094 221.917969 295.15625 220.15625 C 295.691406 218.394531 296.179688 216.621094 296.628906 214.835938 C 297.074219 213.050781 297.480469 211.253906 297.839844 209.449219 C 298.199219 207.640625 298.511719 205.828125 298.78125 204.007812 C 299.050781 202.1875 299.277344 200.359375 299.457031 198.527344 C 299.640625 196.695312 299.773438 194.859375 299.863281 193.019531 C 299.953125 191.179688 300 189.339844 300 187.5 C 300 185.660156 299.953125 183.820312 299.863281 181.980469 C 299.773438 180.140625 299.640625 178.304688 299.457031 176.472656 C 299.277344 174.640625 299.050781 172.8125 298.78125 170.992188 C 298.511719 169.171875 298.199219 167.359375 297.839844 165.550781 C 297.480469 163.746094 297.074219 161.949219 296.628906 160.164062 C 296.179688 158.378906 295.691406 156.605469 295.15625 154.84375 C 294.621094 153.082031 294.042969 151.332031 293.421875 149.601562 C 292.804688 147.867188 292.140625 146.148438 291.4375 144.449219 C 290.730469 142.746094 289.984375 141.0625 289.199219 139.398438 C 288.410156 137.734375 287.585938 136.089844 286.714844 134.46875 C 285.847656 132.84375 284.941406 131.242188 283.996094 129.664062 C 283.046875 128.085938 282.0625 126.527344 281.039062 125 C 280.015625 123.46875 278.957031 121.960938 277.859375 120.484375 C 276.765625 119.003906 275.632812 117.554688 274.464844 116.128906 C 273.296875 114.707031 272.09375 113.3125 270.855469 111.949219 C 269.621094 110.585938 268.351562 109.253906 267.050781 107.949219 C 265.746094 106.648438 264.414062 105.378906 263.050781 104.144531 C 261.6875 102.90625 260.292969 101.703125 258.871094 100.535156 C 257.445312 99.367188 255.996094 98.234375 254.515625 97.140625 C 253.039062 96.042969 251.53125 94.984375 250 93.960938 C 248.472656 92.9375 246.914062 91.953125 245.335938 91.003906 C 243.757812 90.058594 242.15625 89.152344 240.53125 88.285156 C 238.910156 87.414062 237.265625 86.589844 235.601562 85.800781 C 233.933594 85.015625 232.253906 84.269531 230.550781 83.5625 C 228.851562 82.859375 227.132812 82.195312 225.398438 81.578125 C 223.667969 80.957031 221.917969 80.378906 220.15625 79.84375 C 218.394531 79.308594 216.621094 78.820312 214.835938 78.371094 C 213.050781 77.925781 211.253906 77.519531 209.449219 77.160156 C 207.640625 76.800781 205.828125 76.488281 204.007812 76.21875 C 202.1875 75.949219 200.359375 75.722656 198.527344 75.542969 C 196.695312 75.359375 194.859375 75.226562 193.019531 75.136719 C 191.179688 75.046875 189.339844 75 187.5 75 Z M 187.5 0 " fill-opacity="1" fill-rule="nonzero"/><path fill="#a8d0e6" d="M 187.5 0 C 190.140625 0 192.777344 0.0546875 195.414062 0.167969 C 198.050781 0.277344 200.683594 0.445312 203.3125 0.667969 C 205.941406 0.890625 208.566406 1.167969 211.183594 1.5 C 213.800781 1.835938 216.410156 2.222656 219.011719 2.667969 C 221.613281 3.109375 224.203125 3.609375 226.785156 4.160156 C 229.363281 4.714844 231.929688 5.320312 234.484375 5.984375 C 237.039062 6.644531 239.578125 7.359375 242.105469 8.128906 C 244.628906 8.894531 247.136719 9.71875 249.625 10.589844 C 252.117188 11.464844 254.585938 12.390625 257.035156 13.371094 C 259.488281 14.347656 261.917969 15.378906 264.324219 16.460938 C 266.730469 17.542969 269.113281 18.671875 271.472656 19.855469 C 273.832031 21.035156 276.164062 22.269531 278.472656 23.546875 C 280.78125 24.828125 283.058594 26.15625 285.3125 27.535156 C 287.5625 28.910156 289.785156 30.332031 291.976562 31.804688 C 294.167969 33.273438 296.324219 34.789062 298.453125 36.351562 C 300.582031 37.914062 302.671875 39.519531 304.734375 41.167969 C 306.792969 42.820312 308.816406 44.511719 310.804688 46.246094 C 312.792969 47.984375 314.742188 49.757812 316.65625 51.578125 C 318.570312 53.394531 320.441406 55.25 322.277344 57.148438 C 324.109375 59.046875 325.90625 60.980469 327.65625 62.953125 C 329.410156 64.925781 331.121094 66.933594 332.789062 68.980469 C 334.457031 71.023438 336.082031 73.101562 337.660156 75.214844 C 339.242188 77.328125 340.777344 79.476562 342.265625 81.652344 C 343.757812 83.832031 345.199219 86.039062 346.59375 88.277344 C 347.992188 90.519531 349.339844 92.785156 350.640625 95.082031 C 351.941406 97.378906 353.195312 99.699219 354.394531 102.050781 C 355.597656 104.398438 356.75 106.769531 357.855469 109.167969 C 358.957031 111.566406 360.007812 113.984375 361.007812 116.425781 C 362.007812 118.871094 362.957031 121.332031 363.851562 123.8125 C 364.75 126.296875 365.59375 128.796875 366.382812 131.3125 C 367.175781 133.832031 367.910156 136.363281 368.59375 138.914062 C 369.277344 141.460938 369.910156 144.023438 370.484375 146.597656 C 371.058594 149.171875 371.582031 151.757812 372.046875 154.355469 C 372.515625 156.953125 372.925781 159.558594 373.28125 162.175781 C 373.636719 164.789062 373.9375 167.410156 374.183594 170.039062 C 374.429688 172.664062 374.621094 175.296875 374.753906 177.933594 C 374.890625 180.566406 374.96875 183.203125 374.992188 185.84375 C 375.015625 188.480469 374.984375 191.121094 374.894531 193.757812 C 374.808594 196.394531 374.664062 199.027344 374.464844 201.660156 C 374.265625 204.292969 374.011719 206.917969 373.699219 209.539062 C 373.390625 212.160156 373.023438 214.773438 372.605469 217.375 C 372.183594 219.980469 371.707031 222.578125 371.179688 225.160156 C 370.648438 227.746094 370.0625 230.320312 369.425781 232.878906 C 368.785156 235.441406 368.09375 237.988281 367.347656 240.515625 C 366.601562 243.046875 365.804688 245.5625 364.949219 248.058594 C 364.097656 250.558594 363.195312 253.035156 362.238281 255.496094 C 361.28125 257.953125 360.269531 260.390625 359.210938 262.808594 C 358.152344 265.226562 357.042969 267.617188 355.878906 269.988281 C 354.71875 272.359375 353.507812 274.703125 352.25 277.019531 C 350.988281 279.339844 349.679688 281.628906 348.324219 283.894531 C 346.96875 286.15625 345.5625 288.390625 344.113281 290.59375 C 342.660156 292.800781 341.164062 294.972656 339.621094 297.113281 C 338.078125 299.253906 336.492188 301.363281 334.859375 303.433594 C 333.230469 305.507812 331.554688 307.546875 329.835938 309.550781 C 328.117188 311.554688 326.359375 313.519531 324.558594 315.449219 C 322.757812 317.378906 320.917969 319.269531 319.039062 321.121094 C 317.15625 322.972656 315.238281 324.78125 313.28125 326.550781 C 311.324219 328.320312 309.332031 330.050781 307.300781 331.734375 C 305.269531 333.421875 303.207031 335.066406 301.105469 336.664062 C 299.007812 338.261719 296.875 339.816406 294.710938 341.324219 C 292.546875 342.835938 290.347656 344.296875 288.121094 345.710938 C 285.894531 347.128906 283.640625 348.496094 281.355469 349.816406 C 279.070312 351.140625 276.761719 352.410156 274.421875 353.632812 C 272.085938 354.859375 269.722656 356.03125 267.332031 357.15625 L 235.398438 289.292969 C 238.265625 287.945312 241.070312 286.476562 243.8125 284.890625 C 246.554688 283.304688 249.226562 281.605469 251.824219 279.796875 C 254.425781 277.984375 256.941406 276.066406 259.378906 274.042969 C 261.816406 272.015625 264.164062 269.894531 266.421875 267.671875 C 268.679688 265.449219 270.839844 263.136719 272.902344 260.730469 C 274.964844 258.324219 276.921875 255.839844 278.773438 253.269531 C 280.625 250.699219 282.367188 248.054688 283.996094 245.335938 C 285.625 242.621094 287.132812 239.839844 288.527344 236.992188 C 289.921875 234.148438 291.191406 231.25 292.34375 228.296875 C 293.492188 225.34375 294.511719 222.347656 295.410156 219.308594 C 296.304688 216.273438 297.070312 213.199219 297.707031 210.097656 C 298.34375 206.992188 298.847656 203.867188 299.21875 200.722656 C 299.59375 197.578125 299.832031 194.421875 299.9375 191.253906 C 300.042969 188.089844 300.015625 184.921875 299.851562 181.757812 C 299.691406 178.59375 299.398438 175.445312 298.96875 172.304688 C 298.542969 169.164062 297.980469 166.050781 297.289062 162.957031 C 296.597656 159.867188 295.78125 156.808594 294.828125 153.789062 C 293.878906 150.765625 292.804688 147.789062 291.605469 144.855469 C 290.402344 141.925781 289.082031 139.050781 287.636719 136.230469 C 286.195312 133.410156 284.632812 130.65625 282.957031 127.96875 C 281.28125 125.277344 279.492188 122.667969 277.597656 120.128906 C 275.699219 117.59375 273.699219 115.140625 271.59375 112.773438 C 269.492188 110.402344 267.289062 108.128906 264.992188 105.945312 C 262.695312 103.765625 260.3125 101.683594 257.839844 99.703125 C 255.367188 97.722656 252.816406 95.847656 250.183594 94.082031 C 247.554688 92.316406 244.855469 90.667969 242.085938 89.128906 C 239.3125 87.59375 236.484375 86.175781 233.59375 84.875 C 230.703125 83.578125 227.765625 82.40625 224.777344 81.355469 C 221.785156 80.304688 218.757812 79.382812 215.691406 78.589844 C 212.625 77.796875 209.53125 77.132812 206.40625 76.601562 C 203.285156 76.066406 200.144531 75.667969 196.988281 75.402344 C 193.832031 75.132812 190.667969 75 187.5 75 Z M 187.5 0 " fill-opacity="1" fill-rule="nonzero"/></svg>